<svg id="visual" viewBox="0 0 900 600" width="900" height="600" xmlns="http://www.w3.org/2000/svg" xmlns:xlink="http://www.w3.org/1999/xlink" version="1.1"><path d="M0 145L8.8 136C17.7 127 35.3 109 53 101C70.7 93 88.3 95 106 97C123.7 99 141.3 101 159 104C176.7 107 194.3 111 212 108C229.7 105 247.3 95 265 98C282.7 101 300.3 117 318 117C335.7 117 353.3 101 371 100C388.7 99 406.3 113 423.8 116C441.3 119 458.7 111 476.2 105C493.7 99 511.3 95 529 98C546.7 101 564.3 111 582 120C599.7 129 617.3 137 635 135C652.7 133 670.3 121 688 119C705.7 117 723.3 125 741 131C758.7 137 776.3 141 794 139C811.7 137 829.3 129 847 121C864.7 113 882.3 105 891.2 101L900 97L900 0L891.2 0C882.3 0 864.7 0 847 0C829.3 0 811.7 0 794 0C776.3 0 758.7 0 741 0C723.3 0 705.7 0 688 0C670.3 0 652.7 0 635 0C617.3 0 599.7 0 582 0C564.3 0 546.7 0 529 0C511.3 0 493.7 0 476.2 0C458.7 0 441.3 0 423.8 0C406.3 0 388.7 0 371 0C353.3 0 335.7 0 318 0C300.3 0 282.7 0 265 0C247.3 0 229.7 0 212 0C194.3 0 176.7 0 159 0C141.3 0 123.7 0 106 0C88.3 0 70.7 0 53 0C35.3 0 17.7 0 8.8 0L0 0Z" fill="#3b82f6"></path><path d="M0 193L8.8 190C17.7 187 35.3 181 53 175C70.7 169 88.3 163 106 161C123.7 159 141.3 161 159 163C176.7 165 194.3 167 212 162C229.7 157 247.3 145 265 152C282.7 159 300.3 185 318 188C335.7 191 353.3 171 371 167C388.7 163 406.3 175 423.8 181C441.3 187 458.7 187 476.2 180C493.7 173 511.3 159 529 160C546.7 161 564.3 177 582 185C599.7 193 617.3 193 635 192C652.7 191 670.3 189 688 192C705.7 195 723.3 203 741 205C758.7 207 776.3 203 794 198C811.7 193 829.3 187 847 182C864.7 177 882.3 173 891.2 171L900 169L900 95L891.2 99C882.3 103 864.7 111 847 119C829.3 127 811.7 135 794 137C776.3 139 758.7 135 741 129C723.3 123 705.7 115 688 117C670.3 119 652.7 131 635 133C617.3 135 599.7 127 582 118C564.3 109 546.7 99 529 96C511.3 93 493.7 97 476.2 103C458.7 109 441.3 117 423.8 114C406.3 111 388.7 97 371 98C353.3 99 335.7 115 318 115C300.3 115 282.7 99 265 96C247.3 93 229.7 103 212 106C194.3 109 176.7 105 159 102C141.3 99 123.7 97 106 95C88.3 93 70.7 91 53 99C35.3 107 17.7 125 8.8 134L0 143Z" fill="#366fda"></path><path d="M0 271L8.8 267C17.7 263 35.3 255 53 250C70.7 245 88.3 243 106 241C123.7 239 141.3 237 159 241C176.7 245 194.3 255 212 249C229.7 243 247.3 221 265 223C282.7 225 300.3 251 318 258C335.7 265 353.3 253 371 253C388.7 253 406.3 265 423.8 271C441.3 277 458.7 277 476.2 266C493.7 255 511.3 233 529 232C546.7 231 564.3 251 582 260C599.7 269 617.3 267 635 268C652.7 269 670.3 273 688 279C705.7 285 723.3 293 741 293C758.7 293 776.3 285 794 277C811.7 269 829.3 261 847 259C864.7 257 882.3 261 891.2 263L900 265L900 167L891.2 169C882.3 171 864.7 175 847 180C829.3 185 811.7 191 794 196C776.3 201 758.7 205 741 203C723.3 201 705.7 193 688 190C670.3 187 652.7 189 635 190C617.3 191 599.7 191 582 183C564.3 175 546.7 159 529 158C511.3 157 493.7 171 476.2 178C458.7 185 441.3 185 423.8 179C406.3 173 388.7 161 371 165C353.3 169 335.7 189 318 186C300.3 183 282.7 157 265 150C247.3 143 229.7 155 212 160C194.3 165 176.7 163 159 161C141.3 159 123.7 157 106 159C88.3 161 70.7 167 53 173C35.3 179 17.7 185 8.8 188L0 191Z" fill="#2f5dbf"></path><path d="M0 481L8.8 471C17.7 461 35.3 441 53 436C70.7 431 88.3 441 106 439C123.7 437 141.3 423 159 422C176.7 421 194.3 433 212 431C229.7 429 247.3 413 265 420C282.7 427 300.3 457 318 464C335.7 471 353.3 455 371 446C388.7 437 406.3 435 423.8 433C441.3 431 458.7 429 476.2 432C493.7 435 511.3 443 529 446C546.7 449 564.3 447 582 440C599.7 433 617.3 421 635 417C652.7 413 670.3 417 688 426C705.7 435 723.3 449 741 450C758.7 451 776.3 439 794 432C811.7 425 829.3 423 847 430C864.7 437 882.3 453 891.2 461L900 469L900 263L891.2 261C882.3 259 864.7 255 847 257C829.3 259 811.7 267 794 275C776.3 283 758.7 291 741 291C723.3 291 705.7 283 688 277C670.3 271 652.7 267 635 266C617.3 265 599.7 267 582 258C564.3 249 546.7 229 529 230C511.3 231 493.7 253 476.2 264C458.7 275 441.3 275 423.8 269C406.3 263 388.7 251 371 251C353.3 251 335.7 263 318 256C300.3 249 282.7 223 265 221C247.3 219 229.7 241 212 247C194.3 253 176.7 243 159 239C141.3 235 123.7 237 106 239C88.3 241 70.7 243 53 248C35.3 253 17.7 261 8.8 265L0 269Z" fill="#274ba4"></path><path d="M0 601L8.8 601C17.7 601 35.3 601 53 601C70.7 601 88.3 601 106 601C123.7 601 141.3 601 159 601C176.7 601 194.3 601 212 601C229.7 601 247.3 601 265 601C282.7 601 300.3 601 318 601C335.7 601 353.3 601 371 601C388.7 601 406.3 601 423.8 601C441.3 601 458.7 601 476.2 601C493.7 601 511.3 601 529 601C546.7 601 564.3 601 582 601C599.7 601 617.3 601 635 601C652.7 601 670.3 601 688 601C705.7 601 723.3 601 741 601C758.7 601 776.3 601 794 601C811.7 601 829.3 601 847 601C864.7 601 882.3 601 891.2 601L900 601L900 467L891.2 459C882.3 451 864.7 435 847 428C829.3 421 811.7 423 794 430C776.3 437 758.7 449 741 448C723.3 447 705.7 433 688 424C670.3 415 652.7 411 635 415C617.3 419 599.7 431 582 438C564.3 445 546.7 447 529 444C511.3 441 493.7 433 476.2 430C458.7 427 441.3 429 423.8 431C406.3 433 388.7 435 371 444C353.3 453 335.7 469 318 462C300.3 455 282.7 425 265 418C247.3 411 229.7 427 212 429C194.3 431 176.7 419 159 420C141.3 421 123.7 435 106 437C88.3 439 70.7 429 53 434C35.3 439 17.7 459 8.8 469L0 479Z" fill="#1e3a8a"></path></svg>